<?xml version="1.0" encoding="utf-8"?>
<!-- Generated by IcoMoon.io -->
<!DOCTYPE svg PUBLIC "-//W3C//DTD SVG 1.1//EN" "http://www.w3.org/Graphics/SVG/1.1/DTD/svg11.dtd">

<svg version="1.1" xmlns="http://www.w3.org/2000/svg" xmlns:xlink="http://www.w3.org/1999/xlink" width="252" height="32" viewBox="0 0 252 32">
<defs>
<g id="icon-volume-off">
	<path class="path1" d="M13.714 6.286v19.429q0 0.464-0.339 0.804t-0.804 0.339-0.804-0.339l-5.946-5.946h-4.679q-0.464 0-0.804-0.339t-0.339-0.804v-6.857q0-0.464 0.339-0.804t0.804-0.339h4.679l5.946-5.946q0.339-0.339 0.804-0.339t0.804 0.339 0.339 0.804z" />
</g>
<g id="icon-volume-up">
	<path class="path1" d="M13.714 6.286v19.429q0 0.464-0.339 0.804t-0.804 0.339-0.804-0.339l-5.946-5.946h-4.679q-0.464 0-0.804-0.339t-0.339-0.804v-6.857q0-0.464 0.339-0.804t0.804-0.339h4.679l5.946-5.946q0.339-0.339 0.804-0.339t0.804 0.339 0.339 0.804zM20.571 16q0 1.357-0.759 2.527t-2.009 1.67q-0.179 0.089-0.446 0.089-0.464 0-0.804-0.33t-0.339-0.813q0-0.375 0.214-0.634t0.518-0.446 0.607-0.411 0.518-0.634 0.214-1.018-0.214-1.018-0.518-0.634-0.607-0.411-0.518-0.446-0.214-0.634q0-0.482 0.339-0.813t0.804-0.33q0.268 0 0.446 0.089 1.25 0.482 2.009 1.661t0.759 2.536zM25.143 16q0 2.732-1.518 5.045t-4.018 3.366q-0.232 0.089-0.446 0.089-0.482 0-0.821-0.339t-0.339-0.804q0-0.696 0.696-1.054 1-0.518 1.357-0.786 1.321-0.964 2.063-2.42t0.741-3.098-0.741-3.098-2.063-2.42q-0.357-0.268-1.357-0.786-0.696-0.357-0.696-1.054 0-0.464 0.339-0.804t0.804-0.339q0.232 0 0.464 0.089 2.5 1.054 4.018 3.366t1.518 5.045zM29.714 16q0 4.107-2.268 7.545t-6.036 5.063q-0.232 0.089-0.464 0.089-0.464 0-0.804-0.339t-0.339-0.804q0-0.643 0.696-1.054 0.125-0.071 0.402-0.188t0.402-0.188q0.821-0.446 1.464-0.911 2.196-1.625 3.429-4.054t1.232-5.161-1.232-5.161-3.429-4.054q-0.643-0.464-1.464-0.911-0.125-0.071-0.402-0.188t-0.402-0.188q-0.696-0.411-0.696-1.054 0-0.464 0.339-0.804t0.804-0.339q0.232 0 0.464 0.089 3.768 1.625 6.036 5.063t2.268 7.545z" />
</g>
<g id="icon-play">
	<path class="path1" d="M26.717 15.179l-13.698-8.486c-0.998-0.654-1.814-0.171-1.814 1.072v16.474c0 1.243 0.818 1.725 1.814 1.070l13.699-8.486c0 0 0.486-0.342 0.486-0.822-0.002-0.478-0.488-0.821-0.488-0.821z" />
</g>
<g id="icon-pause">
	<path class="path1" d="M21.6 4.8c-1.59 0-2.88 0.49-2.88 2.080v18.24c0 1.59 1.29 2.080 2.88 2.080s2.88-0.49 2.88-2.080v-18.24c0-1.59-1.29-2.080-2.88-2.080zM10.4 4.8c-1.59 0-2.88 0.49-2.88 2.080v18.24c0 1.59 1.29 2.080 2.88 2.080s2.88-0.49 2.88-2.080v-18.24c0-1.59-1.29-2.080-2.88-2.080z" />
</g>
<g id="icon-next">
	<path class="path1" d="M29.314 15.234l-11.939-7.92c-0.917-0.611-1.669-0.162-1.669 0.998v15.374c0 1.162 0.752 1.611 1.669 0.998l11.939-7.918c0 0 0.446-0.32 0.446-0.766s-0.446-0.766-0.446-0.766zM14.794 15.234l-11.526-7.922c-0.915-0.61-1.666-0.16-1.666 1v15.374c0 1.162 0.75 1.611 1.667 0.998l11.526-7.918c0 0 0.446-0.32 0.446-0.766s-0.448-0.766-0.448-0.766z" />
</g>
<g id="icon-previous">
	<path class="path1" d="M2.238 16c0 0.446 0.446 0.766 0.446 0.766l11.941 7.918c0.915 0.613 1.667 0.163 1.667-0.998v-15.374c0-1.162-0.752-1.61-1.667-1l-11.941 7.92c0.002 0.002-0.446 0.322-0.446 0.768zM16.76 16c0 0.446 0.446 0.766 0.446 0.766l11.525 7.918c0.917 0.613 1.667 0.163 1.667-0.998v-15.374c0-1.162-0.75-1.61-1.667-1l-11.525 7.92c0 0.002-0.446 0.322-0.446 0.768z" />
</g>
</defs>

<g fill="#000000">
	<use xlink:href="#icon-volume-off" transform="translate(0 0)"></use>
	<use xlink:href="#icon-volume-up" transform="translate(30 0)"></use>
	<use xlink:href="#icon-play" transform="translate(76 0)"></use>
	<use xlink:href="#icon-pause" transform="translate(124 0)"></use>
	<use xlink:href="#icon-next" transform="translate(172 0)"></use>
	<use xlink:href="#icon-previous" transform="translate(220 0)"></use>
</g>

</svg>
